SPORT: Six Nations Rugby Union - Italy v France
On: BBC 1 HD     
Date: Sunday 3rd February 2013 
KO Time: 15:00 

Live coverage from Rome as Italy meet France on the opening weekend of the 2013 Six Nations. The French began the 2012 campaign with a 30-12 victory over their continental neighbours, but went on to finish a disappointing fourth in the championship. Italy will be hoping for a repeat of the last time the two sides met in Rome in 2011, which ended in a memorable 22-21 victory for the Azzurri. Commentary by Alastair Eykyn and Jonathan Davies.


General
Complete name                            : 2013.02.03.6N.Italy.v.France.720p.x264.mp4
Format                                   : MPEG-4
Format profile                           : Base Media
Codec ID                                 : isom
File size                                : 2.71 GiB
Duration                                 : 1h 43mn
Overall bit rate mode                    : Variable
Overall bit rate                         : 3 736 Kbps

Video
ID                                       : 1
Format                                   : AVC
Format/Info                              : Advanced Video Codec
Format profile                           : High@L4.1
Format settings, CABAC                   : Yes
Format settings, ReFrames                : 8 frames
Codec ID                                 : avc1
Codec ID/Info                            : Advanced Video Coding
Duration                                 : 1h 43mn
Bit rate                                 : 3 608 Kbps
Maximum bit rate                         : 13.6 Mbps
Width                                    : 1 280 pixels
Height                                   : 720 pixels
Display aspect ratio                     : 16:9
Frame rate mode                          : Constant
Frame rate                               : 25.000 fps
Color space                              : YUV
Chroma subsampling                       : 4:2:0
Bit depth                                : 8 bits
Scan type                                : Progressive
Bits/(Pixel*Frame)                       : 0.157
Stream size                              : 2.61 GiB (97%)
Writing library                          : x264 core 129 r2230 1cffe9f

Audio
ID                                       : 2
Format                                   : AAC
Format/Info                              : Advanced Audio Codec
Format profile                           : LC
Codec ID                                 : 40
Duration                                 : 1h 43mn
Bit rate mode                            : Variable
Bit rate                                 : 124 Kbps
Maximum bit rate                         : 129 Kbps
Channel(s)                               : 2 channels
Channel positions                        : Front: L R
Sampling rate                            : 48.0 KHz
Compression mode                         : Lossy
Delay relative to video                  : 80ms
Stream size                              : 91.9 MiB (3%)
Language                                 : English